<?xml version="1.0" encoding="UTF-8"?>
<!DOCTYPE svg PUBLIC "-//W3C//DTD SVG 1.1//EN" "http://www.w3.org/Graphics/SVG/1.1/DTD/svg11.dtd">
<!-- Creator: CorelDRAW X7 -->
<svg xmlns="http://www.w3.org/2000/svg" xml:space="preserve" width="146.5058mm" height="103.815mm" version="1.1" style="shape-rendering:geometricPrecision; text-rendering:geometricPrecision; image-rendering:optimizeQuality; fill-rule:evenodd; clip-rule:evenodd"
viewBox="0 0 7325 5191"
 xmlns:xlink="http://www.w3.org/1999/xlink">
 <defs>
  <style type="text/css">
   <![CDATA[
    .fil0 {fill:#2B2A29}
    .fil1 {fill:#E31E24}
    .fil2 {fill:#2B2A29;fill-rule:nonzero}
   ]]>
  </style>
 </defs>
 <g id="Layer_x0020_1">
  <metadata id="CorelCorpID_0Corel-Layer"/>
  <g id="_2702296406016">
   <path class="fil0" d="M3707 1027c158,-67 395,-254 565,-353 196,-113 395,-234 623,-327 738,-301 1063,-104 714,622 -233,483 -1036,1475 -1423,1813 -119,103 -172,115 -245,236 600,129 1575,602 2031,123 274,-289 600,-711 766,-974 401,-639 548,-985 0,-1544 -592,-603 -905,-767 -1594,-498 -201,78 -1308,672 -1437,902z"/>
   <path class="fil1" d="M1316 1011c-158,-9 -530,115 -680,204 -190,114 -337,223 -460,410 -264,401 -228,922 88,1263 300,324 727,469 1282,485 416,11 925,0 1359,0 146,1 316,8 458,0 -1,-24 -229,-297 -276,-348 -48,-53 -91,-111 -144,-170 -98,-109 -27,-105 -222,-105l-991 0c-110,0 -228,-8 -330,-5 -359,-25 -651,-347 -587,-676 35,-177 198,-335 361,-393 40,-14 170,-54 208,-52l41 -16c96,-15 1331,-7 1429,-7 491,0 990,11 1479,2 12,-35 12,-560 1,-602 -732,-11 -1521,1 -2264,1l-569 3c-36,1 -159,9 -183,6z"/>
   <path class="fil1" d="M5832 3361c87,-99 158,-191 244,-291 46,-54 86,-99 125,-145 39,-46 74,-89 116,-142 4,-16 4,-11 -1,-19l-1974 -3c-17,-46 -8,-910 -8,-1035 -27,-10 -711,-9 -793,-5l-2 1646 2293 -6z"/>
   <path class="fil2" d="M2643 3909c0,-118 42,-217 125,-297 83,-81 188,-121 316,-121 62,0 119,11 173,31 53,21 97,52 132,94l-89 60c-25,-31 -57,-55 -95,-72 -38,-17 -78,-25 -121,-25 -94,0 -173,33 -236,98 -63,66 -95,143 -95,232 0,94 31,172 93,236 62,63 141,95 238,95 104,0 188,-37 250,-112l78 60c-39,47 -85,82 -140,105 -55,23 -118,34 -188,34 -125,0 -230,-39 -314,-118 -85,-79 -127,-179 -127,-300zm325 494l76 -96 55 0 -55 72c8,-1 15,-3 22,-3 8,-1 15,-1 21,-1 25,0 48,6 68,19 20,13 30,33 30,58 0,33 -15,58 -46,76 -27,15 -59,23 -97,23 -44,0 -85,-8 -121,-24l21 -41c28,12 57,18 88,18 19,0 36,-3 49,-9 17,-9 25,-21 25,-37 0,-15 -6,-25 -19,-32 -13,-7 -28,-11 -44,-11 -7,0 -13,0 -19,1 -5,1 -15,3 -29,8l-25 -21z"/>
   <polygon class="fil2" points="4121,4219 4121,4307 3555,4307 3555,3512 4099,3512 4099,3599 3658,3599 3658,3849 4070,3849 4070,3936 3658,3936 3658,4219 "/>
   <polygon class="fil2" points="4780,4219 4780,4307 4281,4307 4281,3512 4383,3512 4383,4219 "/>
   <polygon class="fil2" points="5459,4219 5459,4307 4893,4307 4893,3512 5437,3512 5437,3599 4995,3599 4995,3849 5408,3849 5408,3936 4995,3936 4995,4219 "/>
   <path class="fil2" d="M6214 4085c0,79 -36,138 -108,176 -59,31 -135,46 -229,46l-259 0 0 -795 265 0c81,0 146,14 197,42 60,35 90,86 90,153 0,46 -13,84 -39,114 -27,31 -64,52 -112,66 55,6 102,27 139,65 38,37 56,81 56,133zm-154 -366c0,-44 -19,-77 -57,-96 -31,-16 -74,-24 -129,-24l-153 0 0 250 142 0c60,0 105,-8 135,-23 41,-21 62,-56 62,-107zm44 362c0,-51 -21,-88 -63,-113 -37,-21 -85,-32 -143,-32l-177 0 0 283 174 0c58,0 105,-10 142,-30 45,-25 67,-61 67,-108z"/>
   <path class="fil2" d="M6477 3781l0 1390 -96 0 0 -1390 96 0zm22 -205c0,18 -7,34 -20,46 -13,12 -30,18 -50,18 -21,0 -37,-6 -50,-18 -13,-12 -20,-28 -20,-46 0,-18 7,-33 20,-45 13,-13 29,-19 50,-19 19,0 35,6 49,19 14,12 21,27 21,45z"/>
   <polygon class="fil2" points="4057,5083 4057,5171 3567,5171 3567,4375 3668,4375 3668,5083 "/>
   <path class="fil2" d="M4271 4975l-88 196 -114 0 374 -796 95 0 362 796 -118 0 -87 -196 -424 0zm39 -88l347 0 -168 -391 -179 391z"/>
   <path class="fil2" d="M4972 4584c0,-73 29,-130 89,-172 53,-38 120,-57 200,-57 51,0 95,7 133,21 39,14 74,38 105,72l-83 68c-16,-24 -38,-43 -66,-55 -28,-12 -58,-19 -89,-19 -49,0 -90,11 -124,32 -38,24 -57,58 -57,102 0,36 12,64 38,85 25,21 72,41 141,61 84,26 143,50 176,74 52,39 78,93 78,162 0,75 -30,133 -91,175 -55,39 -124,58 -208,58 -54,0 -103,-8 -146,-25 -49,-19 -87,-47 -116,-85l87 -67c18,29 43,51 76,66 32,15 68,23 105,23 48,0 90,-12 125,-35 40,-26 60,-60 60,-103 0,-45 -18,-78 -54,-100 -21,-13 -77,-33 -168,-62 -70,-22 -120,-46 -150,-73 -41,-36 -61,-85 -61,-146z"/>
   <polygon class="fil2" points="5588,4463 5588,4375 6251,4375 6251,4463 5970,4463 5970,5171 5869,5171 5869,4463 "/>
   <polygon class="fil2" points="6759,4766 6759,5171 6658,5171 6658,4375 6759,4375 6759,4719 6773,4719 7160,4375 7305,4375 6885,4738 7325,5171 7179,5170 6773,4766 "/>
   <polygon class="fil1" points="1595,3491 2538,3491 2538,3627 1595,3627 "/>
  </g>
 </g>
</svg>
